<svg xmlns="http://www.w3.org/2000/svg" width="30.94" height="27.527" viewBox="0 0 30.94 27.527">
  <g id="Group_408" data-name="Group 408" transform="translate(-145.103)">
    <path id="heart" d="M28.486,2.694A8.32,8.32,0,0,0,22.3,0a7.784,7.784,0,0,0-4.862,1.678A9.946,9.946,0,0,0,15.471,3.73,9.941,9.941,0,0,0,13.5,1.678,7.782,7.782,0,0,0,8.644,0,8.32,8.32,0,0,0,2.455,2.694,9.671,9.671,0,0,0,0,9.3a11.516,11.516,0,0,0,3.069,7.538,65.437,65.437,0,0,0,7.682,7.21c1.064.907,2.271,1.935,3.524,3.031a1.816,1.816,0,0,0,2.392,0c1.253-1.1,2.46-2.124,3.525-3.032a65.4,65.4,0,0,0,7.681-7.21A11.515,11.515,0,0,0,30.941,9.3a9.67,9.67,0,0,0-2.454-6.6Zm0,0" transform="translate(145.103 0)" fill="#dd2849"/>
  </g>
</svg>
